<?xml version="1.0" encoding="UTF-8"?>
<!DOCTYPE svg PUBLIC "-//W3C//DTD SVG 1.1//EN" "http://www.w3.org/Graphics/SVG/1.1/DTD/svg11.dtd">
<!-- Creator: CorelDRAW 2026 -->
<svg xmlns="http://www.w3.org/2000/svg" xml:space="preserve" width="33.3209mm" height="19.1108mm" version="1.1" style="shape-rendering:geometricPrecision; text-rendering:geometricPrecision; image-rendering:optimizeQuality; fill-rule:evenodd; clip-rule:evenodd"
viewBox="0 0 306.41 175.74"
 xmlns:xlink="http://www.w3.org/1999/xlink"
 xmlns:xodm="http://www.corel.com/coreldraw/odm/2003">
 <defs>
  <style type="text/css">
   <![CDATA[
    .fil3 {fill:none;fill-rule:nonzero}
    .fil4 {fill:url(#id0);fill-rule:nonzero}
    .fil2 {fill:url(#id1);fill-rule:nonzero}
    .fil0 {fill:url(#id2);fill-rule:nonzero}
    .fil1 {fill:url(#id3);fill-rule:nonzero}
    .fil5 {fill:url(#id4);fill-rule:nonzero}
   ]]>
  </style>
  <linearGradient id="id0" gradientUnits="userSpaceOnUse" x1="220.87" y1="101.82" x2="274.98" y2="101.79">
   <stop offset="0" style="stop-opacity:1; stop-color:#44BCF0"/>
   <stop offset="1" style="stop-opacity:1; stop-color:#0A5DDD"/>
  </linearGradient>
  <linearGradient id="id1" gradientUnits="userSpaceOnUse" x1="125.51" y1="47.98" x2="175.75" y2="47.98">
   <stop offset="0" style="stop-opacity:1; stop-color:#0A5DDD"/>
   <stop offset="0.509804" style="stop-opacity:1; stop-color:#43BBF0"/>
   <stop offset="1" style="stop-opacity:1; stop-color:#0A5DDD"/>
  </linearGradient>
  <linearGradient id="id2" gradientUnits="userSpaceOnUse" xlink:href="#id0" x1="46.37" y1="101.82" x2="100.47" y2="101.79">
  </linearGradient>
  <linearGradient id="id3" gradientUnits="userSpaceOnUse" x1="18.83" y1="115.34" x2="146.97" y2="117.15">
   <stop offset="0" style="stop-opacity:1; stop-color:#43BBF0"/>
   <stop offset="0.458824" style="stop-opacity:1; stop-color:#0A5DDD"/>
   <stop offset="1" style="stop-opacity:1; stop-color:#43BBF0"/>
  </linearGradient>
  <linearGradient id="id4" gradientUnits="userSpaceOnUse" xlink:href="#id3" x1="180.87" y1="116.73" x2="299.41" y2="117.13">
  </linearGradient>
 </defs>
 <g id="Camada_x0020_1">
  <metadata id="CorelCorpID_0Corel-Layer"/>
  <g id="_1969545317504">
   <path class="fil0" d="M111.88 109.85l-9.72 25.52c-11.12,-24.35 -34.79,-85.92 -49.23,-104.34 -5.81,-7.42 -15.39,-15.83 -26.57,-12.5l-7.23 -15.93c14.82,-6.39 31.88,-0.24 43.21,10.27 6.95,6.44 9.98,12.68 14.08,20.84 13.54,26.98 21.09,47.53 35.46,76.14z"/>
   <path class="fil1" d="M98.24 128.21l-0.09 -0.18 13.25 -33.76 0.02 -0.04c2.32,-5.2 4.98,-10.33 8.37,-14.93 7.35,-9.96 18.93,-15.6 31.27,-15.61l1.95 -0 0.07 20.32 -1.97 0c-3.31,0 -6.69,0.9 -9.48,2.7 -2.88,1.86 -5.13,4.55 -7,7.39 -2.8,4.23 -4.92,8.93 -6.86,13.6 -2.62,6.31 -4.9,12.75 -7.24,19.17l-0.25 0.68c-2.81,7.17 -5.8,14.25 -9.37,21.05 -3.1,5.89 -6.71,11.71 -11.3,16.56 -1.18,1.25 -2.46,2.41 -3.82,3.47 -5.56,4.39 -12.4,7.05 -19.52,7.11 -7.58,0.07 -14.57,-2.77 -20.06,-7.97 -1.12,-1.06 -2.15,-2.21 -3.1,-3.42 -2.04,-2.59 -3.77,-5.41 -5.34,-8.3 -1.93,-3.55 -3.63,-7.21 -5.24,-10.92 -12.93,-29.7 -25.86,-59.4 -38.79,-89.11 -7.63,-17.53 -4.13,-45.93 15.39,-53.43 2.41,5.16 7.11,10.24 9.53,15.4 -10.7,0.7 -12.23,18.78 -8.46,27.43 6.03,15.68 38.41,96.84 49.9,107.72 1.66,1.57 3.72,2.46 6.02,2.44 2.63,-0.02 5.17,-1.16 7.2,-2.77 0.6,-0.47 1.16,-1 1.68,-1.56 3.29,-3.47 5.86,-7.85 8.07,-12.06 1.83,-3.48 3.48,-7.05 5.03,-10.66l0.14 -0.33z"/>
   <path class="fil2" d="M151.35 53.02c-13.04,0 -24.42,-3.86 -30.08,-9.43 4.57,7.17 16.28,13.61 30.02,13.61 13.74,0 25.46,-6.44 30.02,-13.6 -5.66,5.57 -16.92,9.43 -29.96,9.43z"/>
   <path class="fil3" d="M194.29 109.85l9.72 25.52c11.12,-24.35 34.79,-85.92 49.23,-104.34 5.81,-7.42 15.39,-15.83 26.57,-12.5l7.22 -15.93c-14.82,-6.39 -31.88,-0.24 -43.21,10.27 -6.95,6.44 -9.99,12.68 -14.08,20.84 -13.54,26.98 -21.09,47.53 -35.46,76.14z"/>
   <path class="fil3" d="M207.93 128.21l0.09 -0.18 -13.25 -33.76 -0.02 -0.04c-2.32,-5.2 -4.98,-10.33 -8.37,-14.93 -7.35,-9.96 -18.93,-15.6 -31.27,-15.61l-1.95 -0 -0.07 20.32 1.96 0c3.31,0 6.69,0.9 9.48,2.7 2.88,1.86 5.13,4.55 7,7.39 2.8,4.23 4.92,8.93 6.86,13.6 2.62,6.31 4.9,12.75 7.24,19.17l0.25 0.68c2.81,7.17 5.8,14.25 9.37,21.05 3.1,5.89 6.71,11.71 11.3,16.56 1.18,1.25 2.46,2.41 3.82,3.47 5.56,4.39 12.4,7.05 19.52,7.11 7.58,0.07 14.57,-2.77 20.06,-7.97 1.12,-1.06 2.15,-2.21 3.1,-3.42 2.04,-2.59 3.77,-5.41 5.34,-8.3 1.93,-3.55 3.63,-7.21 5.24,-10.92 12.93,-29.7 25.86,-59.4 38.79,-89.11 5.73,-13.17 5.92,-33.01 -3.74,-43.69 -3.83,-4.23 -8.59,-7.76 -13.93,-9.82 -2.41,5.16 -4.83,10.32 -7.24,15.48 10.7,0.7 12.23,18.78 8.46,27.43 -6.03,15.68 -38.41,96.84 -49.9,107.72 -1.66,1.57 -3.71,2.46 -6.01,2.44 -2.63,-0.02 -5.17,-1.16 -7.21,-2.77 -0.6,-0.47 -1.16,-1 -1.68,-1.56 -3.29,-3.47 -5.86,-7.85 -8.07,-12.06 -1.83,-3.48 -3.48,-7.05 -5.03,-10.66l-0.14 -0.33z"/>
   <path class="fil4" d="M193.64 109.85l9.72 25.52c11.12,-24.35 34.79,-85.92 49.23,-104.34 5.81,-7.42 15.39,-15.83 26.57,-12.5l7.23 -15.93c-14.82,-6.39 -31.88,-0.24 -43.21,10.27 -6.95,6.44 -9.98,12.68 -14.08,20.84 -13.54,26.98 -21.09,47.53 -35.46,76.14z"/>
   <path class="fil5" d="M207.27 128.21l0.09 -0.18 -13.25 -33.76 -0.02 -0.04c-2.32,-5.2 -4.98,-10.33 -8.37,-14.93 -7.35,-9.96 -18.93,-15.6 -31.27,-15.61l-1.95 -0 -0.07 20.32 1.97 0c3.31,0 6.69,0.9 9.48,2.7 2.88,1.86 5.13,4.55 7,7.39 2.8,4.23 4.92,8.93 6.86,13.6 2.62,6.31 4.9,12.75 7.24,19.17l0.25 0.68c2.81,7.17 5.8,14.25 9.37,21.05 3.1,5.89 6.71,11.71 11.3,16.56 1.18,1.25 2.46,2.41 3.82,3.47 5.56,4.39 12.4,7.05 19.52,7.11 7.58,0.07 14.57,-2.77 20.06,-7.97 1.12,-1.06 2.15,-2.21 3.1,-3.42 2.04,-2.59 3.77,-5.41 5.34,-8.3 1.93,-3.55 3.63,-7.21 5.24,-10.92 12.93,-29.7 25.86,-59.4 38.79,-89.11 7.63,-17.53 4.13,-45.93 -15.39,-53.43 -2.41,5.16 -7.11,10.24 -9.53,15.4 10.69,0.7 12.23,18.78 8.46,27.43 -6.03,15.68 -38.41,96.84 -49.9,107.72 -1.66,1.57 -3.71,2.46 -6.01,2.44 -2.63,-0.02 -5.17,-1.16 -7.2,-2.77 -0.6,-0.47 -1.16,-1 -1.68,-1.56 -3.29,-3.47 -5.86,-7.85 -8.07,-12.06 -1.83,-3.48 -3.48,-7.05 -5.03,-10.66l-0.14 -0.33z"/>
  </g>
 </g>
</svg>
