<?xml version="1.0" encoding="UTF-8"?>
<!DOCTYPE svg PUBLIC "-//W3C//DTD SVG 1.1//EN" "http://www.w3.org/Graphics/SVG/1.1/DTD/svg11.dtd">
<!-- Creator: CorelDRAW 2026 -->
<svg xmlns="http://www.w3.org/2000/svg" xml:space="preserve" width="34.2789mm" height="32.0528mm" version="1.1" style="shape-rendering:geometricPrecision; text-rendering:geometricPrecision; image-rendering:optimizeQuality; fill-rule:evenodd; clip-rule:evenodd"
viewBox="0 0 325.51 304.37"
 xmlns:xlink="http://www.w3.org/1999/xlink"
 xmlns:xodm="http://www.corel.com/coreldraw/odm/2003">
 <defs>
  <style type="text/css">
   <![CDATA[
    .fil5 {fill:none;fill-rule:nonzero}
    .fil8 {fill:#43BBF0;fill-rule:nonzero}
    .fil1 {fill:white;fill-rule:nonzero}
    .fil0 {fill:url(#id0);fill-rule:nonzero}
    .fil6 {fill:url(#id1);fill-rule:nonzero}
    .fil4 {fill:url(#id2);fill-rule:nonzero}
    .fil2 {fill:url(#id3);fill-rule:nonzero}
    .fil3 {fill:url(#id4);fill-rule:nonzero}
    .fil7 {fill:url(#id5);fill-rule:nonzero}
   ]]>
  </style>
  <linearGradient id="id0" gradientUnits="userSpaceOnUse" x1="66.22" y1="274.83" x2="259.3" y2="271.51">
   <stop offset="0" style="stop-opacity:1; stop-color:#0A5DDD"/>
   <stop offset="0.501961" style="stop-opacity:1; stop-color:#43BBF0"/>
   <stop offset="1" style="stop-opacity:1; stop-color:#0A5DDD"/>
  </linearGradient>
  <linearGradient id="id1" gradientUnits="userSpaceOnUse" x1="234.61" y1="105.14" x2="290.48" y2="105.11">
   <stop offset="0" style="stop-opacity:1; stop-color:#44BCF0"/>
   <stop offset="1" style="stop-opacity:1; stop-color:#0A5DDD"/>
  </linearGradient>
  <linearGradient id="id2" gradientUnits="userSpaceOnUse" x1="136.13" y1="49.54" x2="188.02" y2="49.55">
   <stop offset="0" style="stop-opacity:1; stop-color:#0A5DDD"/>
   <stop offset="0.509804" style="stop-opacity:1; stop-color:#43BBF0"/>
   <stop offset="1" style="stop-opacity:1; stop-color:#0A5DDD"/>
  </linearGradient>
  <linearGradient id="id3" gradientUnits="userSpaceOnUse" xlink:href="#id1" x1="54.41" y1="105.14" x2="110.28" y2="105.11">
  </linearGradient>
  <linearGradient id="id4" gradientUnits="userSpaceOnUse" x1="25.97" y1="119.11" x2="158.3" y2="120.98">
   <stop offset="0" style="stop-opacity:1; stop-color:#43BBF0"/>
   <stop offset="0.458824" style="stop-opacity:1; stop-color:#0A5DDD"/>
   <stop offset="1" style="stop-opacity:1; stop-color:#43BBF0"/>
  </linearGradient>
  <linearGradient id="id5" gradientUnits="userSpaceOnUse" xlink:href="#id4" x1="193.31" y1="120.54" x2="315.71" y2="120.96">
  </linearGradient>
 </defs>
 <g id="Camada_x0020_1">
  <metadata id="CorelCorpID_0Corel-Layer"/>
  <g id="_1970420791696">
   <path class="fil0" d="M66.19 272.83c32.19,0 64.38,-0.67 96.56,-0.67 32.19,0 64.38,0.67 96.56,0.67 0,0.23 0,0.45 0,0.67 0,0.23 0,0.45 0,0.67 -32.19,0 -64.38,0.67 -96.56,0.67 -32.19,0 -64.38,-0.67 -96.56,-0.67 0,-0.22 0,-0.45 0,-0.67 0,-0.22 0,-0.45 0,-0.67zm2.65 0l91.28 0c0.31,-1.31 1.49,-2.29 2.9,-2.29 1.41,0 2.59,0.98 2.9,2.29l90.75 0c0.31,-1.31 1.49,-2.29 2.9,-2.29 1.65,0 2.98,1.33 2.98,2.96 0,1.64 -1.33,2.96 -2.98,2.96 -1.41,0 -2.59,-0.98 -2.9,-2.29l-90.75 0c-0.31,1.31 -1.49,2.29 -2.9,2.29 -1.41,0 -2.6,-0.98 -2.9,-2.29l-91.28 0c-0.31,1.31 -1.49,2.29 -2.9,2.29 -1.64,0 -2.98,-1.33 -2.98,-2.96 0,-1.64 1.33,-2.96 2.98,-2.96 1.41,0 2.6,0.98 2.9,2.29z"/>
   <path class="fil1" d="M61.31 202.16l-6.76 47.63c-0.29,2.13 -0.99,3.59 -2.11,4.36 -1.12,0.78 -2.64,1.16 -4.58,1.16l-4.15 0c-1.6,0 -2.99,-0.36 -4.18,-1.09 -1.19,-0.73 -2.02,-2.01 -2.51,-3.85l-5.74 -21.74c-0.1,-0.29 -0.18,-0.46 -0.26,-0.51 -0.07,-0.05 -0.21,-0.07 -0.4,-0.07 -0.19,0 -0.31,0.02 -0.36,0.07 -0.05,0.05 -0.12,0.22 -0.22,0.51l-5.75 21.74c-0.49,1.84 -1.32,3.13 -2.51,3.85 -1.19,0.73 -2.58,1.09 -4.18,1.09l-4.15 0c-1.94,0 -3.47,-0.39 -4.58,-1.16 -1.12,-0.77 -1.82,-2.23 -2.11,-4.36l-6.76 -47.63 0 -0.15c0,-0.39 0.12,-0.64 0.36,-0.76 0.24,-0.12 0.51,-0.18 0.8,-0.18l9.89 0c0.68,0 1.07,0.46 1.16,1.38l4.15 38.98c0.05,0.63 0.19,0.95 0.44,0.95 0.19,0 0.36,-0.32 0.51,-0.95l5.24 -20c0.39,-1.41 0.99,-2.34 1.82,-2.8 0.82,-0.46 1.72,-0.69 2.69,-0.69l7.2 0c0.97,0 1.87,0.23 2.69,0.69 0.82,0.46 1.43,1.39 1.82,2.8l5.24 20c0.15,0.63 0.32,0.95 0.51,0.95 0.24,0 0.39,-0.32 0.44,-0.95l4.15 -38.98c0.1,-0.92 0.48,-1.38 1.16,-1.38l9.89 0c0.29,0 0.56,0.06 0.8,0.18 0.24,0.12 0.36,0.38 0.36,0.76l0 0.15zm38.69 51.12c0,0.87 -0.48,1.38 -1.45,1.53 -1.26,0.19 -2.95,0.4 -5.05,0.62 -2.11,0.22 -5.13,0.33 -9.05,0.33 -2.33,0 -4.56,-0.19 -6.7,-0.58 -2.15,-0.39 -4.04,-1.14 -5.66,-2.25 -1.64,-1.11 -2.95,-2.7 -3.92,-4.76 -0.98,-2.06 -1.47,-4.74 -1.47,-8.04l0 -24.14c0,-3.3 0.48,-5.96 1.47,-8 0.97,-2.04 2.28,-3.61 3.92,-4.73 1.62,-1.12 3.53,-1.87 5.7,-2.25 2.17,-0.39 4.41,-0.58 6.74,-0.58 1.94,0 3.65,0.04 5.13,0.11 1.48,0.07 2.78,0.16 3.89,0.25 1.11,0.1 2.07,0.19 2.87,0.29 0.8,0.1 1.51,0.19 2.15,0.29 0.97,0.15 1.45,0.63 1.45,1.45l0 6.76c0,0.39 -0.15,0.73 -0.44,1.02 -0.29,0.29 -0.63,0.44 -1.02,0.44l-14.76 0c-1.7,0 -2.9,0.35 -3.6,1.06 -0.7,0.7 -1.06,2 -1.06,3.89l0 6.62 18.84 0c0.39,0 0.73,0.15 1.02,0.44 0.29,0.29 0.44,0.63 0.44,1.02l0 6.91c0,0.39 -0.15,0.73 -0.44,1.02 -0.29,0.29 -0.63,0.44 -1.02,0.44l-18.84 0 0 7.71c0,1.89 0.35,3.19 1.06,3.89 0.7,0.7 1.9,1.05 3.6,1.05l14.76 0c0.39,0 0.73,0.15 1.02,0.44 0.29,0.29 0.44,0.63 0.44,1.02l0 6.76zm49.31 -13.82c0,3.2 -0.61,5.85 -1.82,7.96 -1.21,2.11 -2.85,3.78 -4.91,5.02 -2.06,1.24 -4.48,2.1 -7.27,2.58 -2.79,0.49 -5.76,0.73 -8.91,0.73 -1.21,0 -2.45,-0.02 -3.71,-0.07 -1.26,-0.05 -2.49,-0.11 -3.67,-0.18 -1.19,-0.07 -2.29,-0.16 -3.31,-0.25 -1.02,-0.1 -1.89,-0.22 -2.62,-0.36 -1.45,-0.24 -2.48,-0.68 -3.09,-1.31 -0.61,-0.63 -0.91,-1.77 -0.91,-3.42l0 -44.22c0,-1.65 0.29,-2.79 0.87,-3.42 0.58,-0.63 1.58,-1.07 2.98,-1.31 0.63,-0.1 1.44,-0.19 2.44,-0.29 0.99,-0.1 2.08,-0.18 3.27,-0.25 1.19,-0.07 2.41,-0.13 3.67,-0.18 1.26,-0.05 2.47,-0.07 3.64,-0.07 3.44,0 6.57,0.25 9.38,0.76 2.81,0.51 5.22,1.35 7.24,2.51 2.01,1.16 3.58,2.71 4.69,4.65 1.11,1.94 1.67,4.36 1.67,7.27l0 1.31c0,2.37 -0.53,4.51 -1.6,6.4 -1.07,1.89 -2.57,3.32 -4.51,4.29 1.94,0.97 3.5,2.38 4.69,4.22 1.19,1.84 1.78,4.02 1.78,6.54l0 1.09zm-12.36 -23.05c0,-1.99 -0.74,-3.45 -2.22,-4.4 -1.48,-0.95 -4.09,-1.42 -7.82,-1.42 -0.29,0 -0.69,0 -1.2,0 -0.51,0 -1.04,0 -1.6,0 -0.56,0 -1.09,0.01 -1.6,0.04 -0.51,0.02 -0.89,0.04 -1.13,0.04l0 12.58 8.14 0c1.45,0 2.65,-0.16 3.6,-0.47 0.95,-0.31 1.7,-0.73 2.25,-1.24 0.56,-0.51 0.96,-1.11 1.2,-1.82 0.24,-0.7 0.36,-1.44 0.36,-2.22l0 -1.09zm0.29 21.96c0,-1.74 -0.56,-3.26 -1.67,-4.54 -1.11,-1.28 -3.13,-1.93 -6.04,-1.93l-8.14 0 0 13.6c0.29,0 0.72,0 1.27,0 0.56,0 1.14,0.01 1.75,0.04 0.61,0.02 1.19,0.04 1.75,0.04 0.56,0 0.96,0 1.2,0 3.73,0 6.31,-0.56 7.74,-1.67 1.43,-1.11 2.15,-2.69 2.15,-4.73l0 -0.8zm55.12 1.45c0,1.94 -0.34,3.85 -1.02,5.75 -0.68,1.89 -1.81,3.59 -3.38,5.09 -1.58,1.5 -3.62,2.73 -6.14,3.67 -2.52,0.94 -5.62,1.42 -9.31,1.42 -2.91,0 -5.47,-0.15 -7.67,-0.44 -2.21,-0.29 -4.23,-0.68 -6.07,-1.16 -0.39,-0.1 -0.73,-0.27 -1.02,-0.51 -0.29,-0.24 -0.44,-0.56 -0.44,-0.95l0 -7.13c0,-0.53 0.12,-0.9 0.36,-1.09 0.24,-0.19 0.56,-0.29 0.95,-0.29l0.22 0c0.73,0.1 1.73,0.19 3.02,0.29 1.28,0.1 2.61,0.18 3.96,0.25 1.36,0.07 2.66,0.15 3.89,0.22 1.24,0.07 2.22,0.11 2.94,0.11 2.52,0 4.23,-0.41 5.13,-1.24 0.9,-0.82 1.35,-2.11 1.35,-3.85 0,-1.07 -0.33,-1.98 -0.98,-2.73 -0.65,-0.75 -1.93,-1.68 -3.82,-2.8l-10.04 -5.96c-1.7,-1.02 -3.09,-2.06 -4.18,-3.13 -1.09,-1.07 -1.96,-2.18 -2.62,-3.35 -0.66,-1.16 -1.11,-2.36 -1.38,-3.6 -0.27,-1.24 -0.4,-2.51 -0.4,-3.82 0,-1.99 0.3,-3.84 0.91,-5.56 0.61,-1.72 1.64,-3.22 3.09,-4.51 1.45,-1.28 3.37,-2.29 5.74,-3.02 2.38,-0.73 5.33,-1.09 8.87,-1.09 1.31,0 2.73,0.05 4.26,0.15 1.53,0.1 2.99,0.22 4.4,0.36 1.41,0.15 2.71,0.32 3.93,0.51 1.21,0.19 2.16,0.39 2.84,0.58 0.29,0.1 0.55,0.24 0.76,0.44 0.22,0.19 0.33,0.49 0.33,0.87l0 7.35c0,0.34 -0.08,0.63 -0.25,0.87 -0.17,0.24 -0.5,0.36 -0.98,0.36l-0.15 0c-0.53,-0.05 -1.39,-0.11 -2.58,-0.18 -1.19,-0.07 -2.53,-0.16 -4.04,-0.25 -1.5,-0.1 -3.04,-0.18 -4.62,-0.25 -1.58,-0.07 -2.97,-0.11 -4.18,-0.11 -2.09,0 -3.55,0.32 -4.4,0.94 -0.85,0.63 -1.27,1.6 -1.27,2.91 0,0.53 0.07,1 0.22,1.38 0.14,0.39 0.4,0.76 0.76,1.13 0.36,0.36 0.86,0.75 1.49,1.16 0.63,0.41 1.43,0.89 2.4,1.42l9.31 5.02c3.78,2.04 6.36,4.27 7.74,6.69 1.38,2.42 2.07,5.12 2.07,8.07zm43.93 -29.89c0,0.39 -0.16,0.72 -0.47,0.98 -0.32,0.27 -0.67,0.4 -1.06,0.4l-11.78 0 0 42.32c0,0.39 -0.15,0.73 -0.44,1.02 -0.29,0.29 -0.63,0.44 -1.02,0.44l-9.53 0c-0.39,0 -0.73,-0.15 -1.02,-0.44 -0.29,-0.29 -0.44,-0.63 -0.44,-1.02l0 -42.32 -11.85 0c-0.39,0 -0.73,-0.13 -1.02,-0.4 -0.29,-0.27 -0.44,-0.59 -0.44,-0.98l0 -7.49c0,-0.39 0.15,-0.72 0.44,-0.98 0.29,-0.27 0.63,-0.4 1.02,-0.4l36.07 0c0.39,0 0.74,0.13 1.06,0.4 0.32,0.27 0.47,0.59 0.47,0.98l0 7.49zm38.32 43.34c0,0.87 -0.48,1.38 -1.45,1.53 -1.26,0.19 -2.95,0.4 -5.05,0.62 -2.11,0.22 -5.13,0.33 -9.05,0.33 -2.33,0 -4.56,-0.19 -6.7,-0.58 -2.15,-0.39 -4.04,-1.14 -5.66,-2.25 -1.64,-1.11 -2.95,-2.7 -3.92,-4.76 -0.98,-2.06 -1.47,-4.74 -1.47,-8.04l0 -24.14c0,-3.3 0.48,-5.96 1.47,-8 0.97,-2.04 2.28,-3.61 3.92,-4.73 1.62,-1.12 3.53,-1.87 5.7,-2.25 2.17,-0.39 4.41,-0.58 6.74,-0.58 1.94,0 3.65,0.04 5.13,0.11 1.48,0.07 2.77,0.16 3.89,0.25 1.12,0.1 2.07,0.19 2.87,0.29 0.8,0.1 1.51,0.19 2.15,0.29 0.97,0.15 1.45,0.63 1.45,1.45l0 6.76c0,0.39 -0.15,0.73 -0.44,1.02 -0.29,0.29 -0.63,0.44 -1.02,0.44l-14.76 0c-1.7,0 -2.9,0.35 -3.6,1.06 -0.7,0.7 -1.05,2 -1.05,3.89l0 6.62 18.84 0c0.39,0 0.73,0.15 1.02,0.44 0.29,0.29 0.44,0.63 0.44,1.02l0 6.91c0,0.39 -0.15,0.73 -0.44,1.02 -0.29,0.29 -0.63,0.44 -1.02,0.44l-18.84 0 0 7.71c0,1.89 0.35,3.19 1.05,3.89 0.7,0.7 1.9,1.05 3.6,1.05l14.76 0c0.39,0 0.73,0.15 1.02,0.44 0.29,0.29 0.44,0.63 0.44,1.02l0 6.76zm50.91 0.95c0,0.58 -0.36,0.87 -1.09,0.87l-11.19 0c-0.39,0 -0.69,-0.15 -0.89,-0.44 -0.19,-0.29 -0.39,-0.63 -0.58,-1.02l-9.7 -18.4 -0.8 0.07c-0.78,0 -1.65,-0.02 -2.64,-0.07 -0.99,-0.05 -1.82,-0.07 -2.5,-0.07l0 18.47c0,0.39 -0.15,0.73 -0.44,1.02 -0.29,0.29 -0.64,0.44 -1.03,0.44l-9.5 0c-0.39,0 -0.74,-0.15 -1.03,-0.44 -0.29,-0.29 -0.44,-0.63 -0.44,-1.02l0 -48.8c0,-1.26 0.27,-2.11 0.8,-2.55 0.53,-0.44 1.36,-0.75 2.47,-0.94 0.84,-0.15 1.83,-0.27 2.99,-0.36 1.16,-0.1 2.4,-0.19 3.72,-0.29 1.31,-0.1 2.66,-0.17 4.04,-0.22 1.38,-0.05 2.74,-0.07 4.05,-0.07 3.1,0 6,0.28 8.67,0.84 2.67,0.56 4.99,1.5 6.96,2.84 1.96,1.33 3.51,3.09 4.63,5.27 1.11,2.18 1.67,4.87 1.67,8.07l0 0.95c0,3.88 -0.9,7.01 -2.7,9.38 -1.81,2.37 -4.05,4.1 -6.74,5.16l11.04 20.51c0.14,0.29 0.22,0.56 0.22,0.8zm-14.25 -36.8c0,-2.23 -0.82,-3.87 -2.46,-4.91 -1.64,-1.04 -3.98,-1.56 -7.02,-1.56 -0.24,0 -0.64,0.01 -1.2,0.04 -0.56,0.02 -1.11,0.05 -1.7,0.07 -0.58,0.02 -1.14,0.05 -1.66,0.07 -0.53,0.02 -0.9,0.04 -1.09,0.04l0 13.96c0.19,0 0.53,0.01 1.02,0.04 0.47,0.02 0.99,0.05 1.55,0.07 0.56,0.02 1.08,0.04 1.55,0.04 0.49,0 0.82,0 1.02,0 1.88,0 3.47,-0.13 4.74,-0.4 1.28,-0.27 2.3,-0.67 3.08,-1.2 0.78,-0.53 1.32,-1.24 1.66,-2.11 0.34,-0.87 0.51,-1.94 0.51,-3.2l0 -0.95z"/>
   <g>
    <path class="fil2" d="M122.06 113.44l-10.04 26.36c-11.48,-25.15 -35.92,-88.73 -50.84,-107.74 -6,-7.66 -15.89,-16.35 -27.44,-12.91l-7.46 -16.45c15.31,-6.6 32.92,-0.24 44.62,10.6 7.17,6.65 10.31,13.09 14.54,21.52 13.98,27.86 21.78,49.08 36.62,78.63z"/>
    <path class="fil3" d="M107.98 132.4l-0.09 -0.19 13.68 -34.86 0.02 -0.04c2.4,-5.37 5.14,-10.67 8.64,-15.42 7.59,-10.28 19.55,-16.11 32.29,-16.12l2.02 -0 0.08 20.98 -2.03 0c-3.42,0 -6.91,0.93 -9.79,2.79 -2.98,1.92 -5.3,4.7 -7.23,7.63 -2.89,4.37 -5.08,9.22 -7.09,14.04 -2.71,6.51 -5.06,13.17 -7.48,19.8l-0.25 0.7c-2.9,7.4 -5.99,14.72 -9.68,21.74 -3.2,6.08 -6.92,12.09 -11.67,17.1 -1.22,1.29 -2.54,2.49 -3.94,3.59 -5.75,4.54 -12.8,7.28 -20.16,7.35 -7.82,0.07 -15.05,-2.86 -20.72,-8.23 -1.15,-1.09 -2.22,-2.28 -3.2,-3.53 -2.11,-2.67 -3.89,-5.58 -5.52,-8.57 -1.99,-3.67 -3.75,-7.45 -5.41,-11.27 -13.35,-30.67 -26.7,-61.34 -40.05,-92.02 -7.88,-18.1 -4.27,-47.43 15.89,-55.17 2.49,5.33 7.35,10.58 9.84,15.91 -11.04,0.73 -12.63,19.39 -8.74,28.33 6.23,16.19 39.67,100 51.53,111.24 1.72,1.63 3.84,2.54 6.21,2.52 2.71,-0.02 5.34,-1.2 7.44,-2.86 0.62,-0.49 1.2,-1.04 1.74,-1.61 3.4,-3.58 6.05,-8.1 8.34,-12.46 1.89,-3.59 3.59,-7.28 5.19,-11.01l0.15 -0.34z"/>
    <path class="fil4" d="M162.82 54.75c-13.47,0 -25.21,-3.98 -31.06,-9.74 4.71,7.4 16.82,14.05 31,14.05 14.19,0 26.29,-6.65 31,-14.05 -5.85,5.75 -17.48,9.74 -30.94,9.74z"/>
    <path class="fil5" d="M207.16 113.44l10.04 26.36c11.48,-25.15 35.92,-88.73 50.84,-107.74 6,-7.66 15.89,-16.35 27.44,-12.91l7.46 -16.45c-15.31,-6.6 -32.92,-0.24 -44.62,10.6 -7.17,6.65 -10.31,13.09 -14.54,21.52 -13.98,27.86 -21.78,49.08 -36.62,78.63z"/>
    <path class="fil5" d="M221.24 132.4l0.09 -0.19 -13.68 -34.86 -0.02 -0.04c-2.4,-5.37 -5.14,-10.67 -8.64,-15.42 -7.59,-10.28 -19.55,-16.11 -32.29,-16.12l-2.02 -0 -0.08 20.98 2.03 0c3.42,0 6.91,0.93 9.79,2.79 2.98,1.92 5.3,4.7 7.23,7.63 2.89,4.37 5.08,9.22 7.08,14.04 2.71,6.51 5.07,13.17 7.48,19.8l0.25 0.7c2.9,7.4 5.99,14.72 9.68,21.74 3.2,6.08 6.93,12.09 11.67,17.1 1.22,1.29 2.54,2.49 3.94,3.59 5.75,4.54 12.8,7.28 20.16,7.35 7.82,0.07 15.05,-2.86 20.72,-8.23 1.15,-1.09 2.22,-2.28 3.2,-3.53 2.11,-2.67 3.89,-5.58 5.52,-8.57 1.99,-3.67 3.75,-7.45 5.41,-11.27 13.35,-30.67 26.7,-61.34 40.05,-92.02 5.92,-13.6 6.11,-34.09 -3.86,-45.12 -3.95,-4.37 -8.87,-8.02 -14.39,-10.14 -2.49,5.33 -4.99,10.66 -7.48,15.99 11.04,0.73 12.63,19.39 8.74,28.33 -6.23,16.19 -39.67,100 -51.53,111.24 -1.72,1.63 -3.84,2.54 -6.21,2.52 -2.72,-0.02 -5.34,-1.2 -7.44,-2.86 -0.62,-0.49 -1.19,-1.04 -1.74,-1.61 -3.4,-3.58 -6.05,-8.1 -8.34,-12.46 -1.89,-3.59 -3.59,-7.28 -5.19,-11.01l-0.15 -0.34z"/>
    <path class="fil6" d="M206.49 113.44l10.04 26.36c11.48,-25.15 35.92,-88.73 50.84,-107.74 6,-7.66 15.89,-16.35 27.44,-12.91l7.46 -16.45c-15.31,-6.6 -32.92,-0.24 -44.62,10.6 -7.17,6.65 -10.31,13.09 -14.54,21.52 -13.98,27.86 -21.78,49.08 -36.62,78.63z"/>
    <path class="fil7" d="M220.57 132.4l0.09 -0.19 -13.68 -34.86 -0.02 -0.04c-2.4,-5.37 -5.14,-10.67 -8.64,-15.42 -7.59,-10.28 -19.55,-16.11 -32.29,-16.12l-2.02 -0 -0.08 20.98 2.03 0c3.42,0 6.91,0.93 9.79,2.79 2.98,1.92 5.3,4.7 7.23,7.63 2.89,4.37 5.08,9.22 7.09,14.04 2.71,6.51 5.06,13.17 7.48,19.8l0.26 0.7c2.9,7.4 5.99,14.72 9.68,21.74 3.2,6.08 6.92,12.09 11.67,17.1 1.22,1.29 2.54,2.49 3.94,3.59 5.75,4.54 12.8,7.28 20.16,7.35 7.82,0.07 15.05,-2.86 20.72,-8.23 1.15,-1.09 2.22,-2.28 3.2,-3.53 2.11,-2.67 3.89,-5.58 5.52,-8.57 1.99,-3.67 3.75,-7.45 5.41,-11.27 13.35,-30.67 26.7,-61.34 40.05,-92.02 7.88,-18.1 4.27,-47.43 -15.89,-55.17 -2.49,5.33 -7.35,10.58 -9.84,15.91 11.04,0.73 12.63,19.39 8.74,28.33 -6.23,16.19 -39.67,100 -51.53,111.24 -1.71,1.63 -3.84,2.54 -6.21,2.52 -2.71,-0.02 -5.34,-1.2 -7.44,-2.86 -0.62,-0.49 -1.2,-1.04 -1.74,-1.61 -3.4,-3.58 -6.05,-8.1 -8.34,-12.46 -1.89,-3.59 -3.59,-7.28 -5.19,-11.01l-0.15 -0.34z"/>
   </g>
   <path class="fil8" d="M97.21 287.7l0 16.47 -3.3 0 0 -16.47 3.3 0zm13.35 13.33l-6.56 0 -1.09 3.14 -3.47 0 5.92 -16.49 3.84 0 5.92 16.49 -3.49 0 -1.09 -3.14zm-0.9 -2.64l-2.38 -6.89 -2.38 6.89 4.77 0zm12.46 -0.8c0,-1.32 0.26,-2.49 0.79,-3.52 0.53,-1.02 1.24,-1.81 2.15,-2.36 0.9,-0.55 1.92,-0.83 3.03,-0.83 0.98,0 1.83,0.2 2.56,0.59 0.73,0.39 1.32,0.89 1.76,1.49l0 -1.86 3.33 0 0 13.07 -3.33 0 0 -1.91c-0.42,0.61 -1.01,1.12 -1.76,1.52 -0.75,0.4 -1.61,0.6 -2.58,0.6 -1.1,0 -2.1,-0.28 -3.01,-0.85 -0.9,-0.57 -1.62,-1.36 -2.15,-2.39 -0.53,-1.03 -0.79,-2.21 -0.79,-3.55zm10.29 0.05c0,-0.8 -0.16,-1.49 -0.47,-2.06 -0.31,-0.57 -0.74,-1.01 -1.27,-1.32 -0.53,-0.31 -1.11,-0.46 -1.72,-0.46 -0.61,0 -1.18,0.15 -1.7,0.45 -0.52,0.3 -0.94,0.73 -1.26,1.31 -0.32,0.57 -0.48,1.26 -0.48,2.04 0,0.79 0.16,1.47 0.48,2.06 0.32,0.59 0.75,1.04 1.27,1.36 0.53,0.32 1.09,0.47 1.69,0.47 0.61,0 1.19,-0.15 1.72,-0.46 0.53,-0.31 0.96,-0.75 1.27,-1.32 0.31,-0.57 0.47,-1.26 0.47,-2.06zm11.56 6.75c-1.07,0 -2.03,-0.19 -2.88,-0.58 -0.85,-0.39 -1.52,-0.91 -2.02,-1.57 -0.5,-0.66 -0.77,-1.39 -0.81,-2.19l3.33 0c0.06,0.5 0.31,0.92 0.74,1.25 0.43,0.33 0.97,0.5 1.62,0.5 0.63,0 1.12,-0.13 1.47,-0.38 0.35,-0.25 0.53,-0.57 0.53,-0.97 0,-0.42 -0.22,-0.74 -0.65,-0.96 -0.43,-0.21 -1.12,-0.44 -2.07,-0.7 -0.97,-0.24 -1.77,-0.48 -2.39,-0.73 -0.62,-0.25 -1.16,-0.64 -1.6,-1.16 -0.45,-0.52 -0.67,-1.22 -0.67,-2.1 0,-0.72 0.21,-1.38 0.63,-1.98 0.42,-0.6 1.01,-1.07 1.79,-1.41 0.78,-0.35 1.69,-0.52 2.75,-0.52 1.56,0 2.8,0.39 3.73,1.17 0.93,0.78 1.44,1.83 1.53,3.15l-3.16 0c-0.05,-0.52 -0.26,-0.93 -0.65,-1.24 -0.38,-0.31 -0.9,-0.46 -1.54,-0.46 -0.6,0 -1.06,0.11 -1.38,0.33 -0.32,0.22 -0.48,0.53 -0.48,0.92 0,0.44 0.22,0.77 0.66,1 0.44,0.23 1.12,0.46 2.05,0.7 0.94,0.24 1.72,0.48 2.34,0.73 0.61,0.25 1.14,0.64 1.59,1.17 0.45,0.53 0.68,1.22 0.7,2.09 0,0.75 -0.21,1.43 -0.62,2.03 -0.42,0.6 -1.01,1.07 -1.79,1.4 -0.78,0.34 -1.69,0.51 -2.73,0.51zm12.86 0c-1.07,0 -2.03,-0.19 -2.88,-0.58 -0.85,-0.39 -1.52,-0.91 -2.02,-1.57 -0.5,-0.66 -0.77,-1.39 -0.81,-2.19l3.33 0c0.06,0.5 0.31,0.92 0.74,1.25 0.43,0.33 0.97,0.5 1.62,0.5 0.63,0 1.12,-0.13 1.47,-0.38 0.35,-0.25 0.53,-0.57 0.53,-0.97 0,-0.42 -0.22,-0.74 -0.65,-0.96 -0.43,-0.21 -1.12,-0.44 -2.06,-0.7 -0.98,-0.24 -1.77,-0.48 -2.39,-0.73 -0.62,-0.25 -1.16,-0.64 -1.6,-1.16 -0.45,-0.52 -0.67,-1.22 -0.67,-2.1 0,-0.72 0.21,-1.38 0.62,-1.98 0.42,-0.6 1.02,-1.07 1.79,-1.41 0.78,-0.35 1.7,-0.52 2.75,-0.52 1.56,0 2.8,0.39 3.73,1.17 0.93,0.78 1.44,1.83 1.53,3.15l-3.16 0c-0.05,-0.52 -0.26,-0.93 -0.65,-1.24 -0.38,-0.31 -0.9,-0.46 -1.54,-0.46 -0.6,0 -1.06,0.11 -1.38,0.33 -0.32,0.22 -0.48,0.53 -0.48,0.92 0,0.44 0.22,0.77 0.66,1 0.44,0.23 1.12,0.46 2.05,0.7 0.94,0.24 1.72,0.48 2.34,0.73 0.61,0.25 1.14,0.64 1.59,1.17 0.45,0.53 0.68,1.22 0.7,2.09 0,0.75 -0.21,1.43 -0.63,2.03 -0.42,0.6 -1.01,1.07 -1.79,1.4 -0.78,0.34 -1.69,0.51 -2.72,0.51zm9.53 -14.84c-0.58,0 -1.07,-0.19 -1.45,-0.55 -0.39,-0.37 -0.58,-0.83 -0.58,-1.38 0,-0.55 0.19,-1.01 0.58,-1.38 0.38,-0.37 0.87,-0.55 1.45,-0.55 0.58,0 1.07,0.19 1.45,0.55 0.38,0.37 0.58,0.83 0.58,1.38 0,0.55 -0.19,1.01 -0.58,1.38 -0.39,0.37 -0.87,0.55 -1.45,0.55zm1.63 1.56l0 13.07 -3.3 0 0 -13.07 3.3 0zm8.26 13.28c-1.07,0 -2.03,-0.19 -2.88,-0.58 -0.85,-0.39 -1.52,-0.91 -2.02,-1.57 -0.49,-0.66 -0.77,-1.39 -0.81,-2.19l3.33 0c0.06,0.5 0.31,0.92 0.74,1.25 0.43,0.33 0.97,0.5 1.62,0.5 0.63,0 1.12,-0.13 1.48,-0.38 0.35,-0.25 0.53,-0.57 0.53,-0.97 0,-0.42 -0.22,-0.74 -0.65,-0.96 -0.43,-0.21 -1.12,-0.44 -2.06,-0.7 -0.97,-0.24 -1.77,-0.48 -2.39,-0.73 -0.62,-0.25 -1.16,-0.64 -1.6,-1.16 -0.45,-0.52 -0.67,-1.22 -0.67,-2.1 0,-0.72 0.21,-1.38 0.62,-1.98 0.42,-0.6 1.01,-1.07 1.79,-1.41 0.78,-0.35 1.69,-0.52 2.75,-0.52 1.56,0 2.8,0.39 3.73,1.17 0.93,0.78 1.44,1.83 1.53,3.15l-3.16 0c-0.05,-0.52 -0.26,-0.93 -0.65,-1.24 -0.39,-0.31 -0.9,-0.46 -1.54,-0.46 -0.6,0 -1.06,0.11 -1.38,0.33 -0.32,0.22 -0.48,0.53 -0.48,0.92 0,0.44 0.22,0.77 0.66,1 0.44,0.23 1.12,0.46 2.05,0.7 0.94,0.24 1.72,0.48 2.34,0.73 0.61,0.25 1.14,0.64 1.59,1.17 0.45,0.53 0.68,1.22 0.7,2.09 0,0.75 -0.21,1.43 -0.62,2.03 -0.42,0.6 -1.01,1.07 -1.79,1.4 -0.78,0.34 -1.69,0.51 -2.73,0.51zm11.7 -10.57l0 6.32c0,0.44 0.11,0.76 0.32,0.96 0.21,0.2 0.57,0.29 1.07,0.29l1.53 0 0 2.78 -2.08 0c-2.78,0 -4.18,-1.35 -4.18,-4.06l0 -6.3 -1.56 0 0 -2.71 1.56 0 0 -3.23 3.33 0 0 3.23 2.92 0 0 2.71 -2.92 0zm4.46 3.77c0,-1.32 0.26,-2.49 0.79,-3.52 0.53,-1.02 1.24,-1.81 2.15,-2.36 0.9,-0.55 1.92,-0.83 3.03,-0.83 0.98,0 1.83,0.2 2.56,0.59 0.73,0.39 1.32,0.89 1.76,1.49l0 -1.86 3.33 0 0 13.07 -3.33 0 0 -1.91c-0.42,0.61 -1.01,1.12 -1.76,1.52 -0.75,0.4 -1.61,0.6 -2.58,0.6 -1.1,0 -2.1,-0.28 -3.01,-0.85 -0.9,-0.57 -1.62,-1.36 -2.15,-2.39 -0.53,-1.03 -0.79,-2.21 -0.79,-3.55zm10.29 0.05c0,-0.8 -0.16,-1.49 -0.47,-2.06 -0.31,-0.57 -0.74,-1.01 -1.27,-1.32 -0.53,-0.31 -1.11,-0.46 -1.72,-0.46 -0.61,0 -1.18,0.15 -1.7,0.45 -0.52,0.3 -0.94,0.73 -1.26,1.31 -0.32,0.57 -0.48,1.26 -0.48,2.04 0,0.79 0.16,1.47 0.48,2.06 0.32,0.59 0.75,1.04 1.27,1.36 0.53,0.32 1.09,0.47 1.69,0.47 0.61,0 1.19,-0.15 1.72,-0.46 0.53,-0.31 0.96,-0.75 1.27,-1.32 0.31,-0.57 0.47,-1.26 0.47,-2.06zm13.8 -6.72c1.56,0 2.82,0.49 3.77,1.47 0.96,0.98 1.44,2.36 1.44,4.12l0 7.67 -3.3 0 0 -7.22c0,-1.04 -0.26,-1.84 -0.78,-2.39 -0.52,-0.56 -1.23,-0.84 -2.12,-0.84 -0.91,0 -1.63,0.28 -2.16,0.84 -0.53,0.56 -0.79,1.36 -0.79,2.39l0 7.22 -3.3 0 0 -13.07 3.3 0 0 1.63c0.44,-0.57 1,-1.01 1.69,-1.33 0.68,-0.32 1.43,-0.48 2.25,-0.48zm12.2 2.9l0 6.32c0,0.44 0.11,0.76 0.32,0.96 0.21,0.2 0.57,0.29 1.07,0.29l1.53 0 0 2.78 -2.08 0c-2.78,0 -4.18,-1.35 -4.18,-4.06l0 -6.3 -1.56 0 0 -2.71 1.56 0 0 -3.23 3.33 0 0 3.23 2.93 0 0 2.71 -2.93 0z"/>
  </g>
 </g>
</svg>
